<mxfile host="app.diagrams.net" modified="2023-06-19T12:58:00.443Z" agent="Mozilla/5.0 (Macintosh; Intel Mac OS X 10_15_7) AppleWebKit/537.36 (KHTML, like Gecko) Chrome/114.0.0.0 Safari/537.36" version="21.5.0" etag="qDoW5aqtOzrZ5Y_5bHJh" type="github">
  <diagram name="Page-1" id="QnrfeTYYmGEp8YEI1_AW">
    <mxGraphModel>
      <root>
        <mxCell id="0" />
        <mxCell id="1" parent="0" />
      </root>
    </mxGraphModel>
  </diagram>
</mxfile>
